<svg xmlns="http://www.w3.org/2000/svg" viewBox="0 0 64 64" width="64px" height="64px">
  <linearGradient id="Vst614ajxZ0CY~qsJnNOya" x1="32" x2="32" y1="17.974" y2="30.261" gradientUnits="userSpaceOnUse" spreadMethod="reflect">
    <stop offset="0" stop-color="#1a6dff" />
    <stop offset="1" stop-color="#c822ff" />
  </linearGradient>
  <path fill="url(#Vst614ajxZ0CY~qsJnNOya)" d="M36.545 20L27.455 20 27 18 37 18z" />
  <linearGradient id="Vst614ajxZ0CY~qsJnNOyb" x1="32" x2="32" y1="23" y2="61" gradientUnits="userSpaceOnUse" spreadMethod="reflect">
    <stop offset="0" stop-color="#6dc7ff" />
    <stop offset="1" stop-color="#e6abff" />
  </linearGradient>
  <path fill="url(#Vst614ajxZ0CY~qsJnNOyb)" d="M32.184,23C22.426,23,12,28.169,12,42.677C12,53.637,20.05,61,32.031,61 C44.162,61,52,53.276,52,41.323C52,27.799,41.325,23,32.184,23z M32.03,60C21.686,60,18,50.702,18,42c0-8.96,4.338-18,14.03-18 C40.908,24,46,30.561,46,42C46,50.96,41.681,60,32.03,60z" />
  <linearGradient id="Vst614ajxZ0CY~qsJnNOyc" x1="32" x2="32" y1="22" y2="62" gradientUnits="userSpaceOnUse" spreadMethod="reflect">
    <stop offset="0" stop-color="#1a6dff" />
    <stop offset="1" stop-color="#c822ff" />
  </linearGradient>
  <path fill="url(#Vst614ajxZ0CY~qsJnNOyc)" d="M24.425,25.168C19.345,28.521,17,35.282,17,42c0,7.866,2.74,13.835,7.375,16.839 C17.281,56.475,13,50.643,13,42.677C13,33.78,17.15,27.611,24.425,25.168 M40.273,25.332C46.245,27.477,51,32.389,51,41.323 c0,8.529-4.209,14.79-11.194,17.373C44.727,55.298,47,48.628,47,42C47,34.031,44.624,28.305,40.273,25.332 M32.184,22 C20.794,22,11,28.338,11,42.677C11,55.046,20.303,62,32.031,62C44.496,62,53,53.908,53,41.323C53,27.754,42.684,22,32.184,22 L32.184,22z M32.03,59C22.521,59,19,50.347,19,42c0-7.674,3.521-17,13.03-17C41.63,25,45,32.858,45,42C45,50.011,41.359,59,32.03,59 L32.03,59z" />
  <linearGradient id="Vst614ajxZ0CY~qsJnNOyd" x1="36.5" x2="36.5" y1=".963" y2="66.516" gradientUnits="userSpaceOnUse" spreadMethod="reflect">
    <stop offset="0" stop-color="#1a6dff" />
    <stop offset="1" stop-color="#c822ff" />
  </linearGradient>
  <path fill="url(#Vst614ajxZ0CY~qsJnNOyd)" d="M38,14.5c0,0.818-0.682,1.5-1.5,1.5S35,15.318,35,14.5s0.682-1.5,1.5-1.5 C37.352,13,38,13.682,38,14.5" />
  <linearGradient id="Vst614ajxZ0CY~qsJnNOye" x1="27.5" x2="27.5" y1=".963" y2="66.516" gradientUnits="userSpaceOnUse" spreadMethod="reflect">
    <stop offset="0" stop-color="#1a6dff" />
    <stop offset="1" stop-color="#c822ff" />
  </linearGradient>
  <path fill="url(#Vst614ajxZ0CY~qsJnNOye)" d="M29,14.5c0,0.818-0.682,1.5-1.5,1.5S26,15.318,26,14.5s0.682-1.5,1.5-1.5 C28.352,13,29,13.682,29,14.5" />
  <linearGradient id="Vst614ajxZ0CY~qsJnNOyf" x1="32" x2="32" y1=".963" y2="66.516" gradientUnits="userSpaceOnUse" spreadMethod="reflect">
    <stop offset="0" stop-color="#1a6dff" />
    <stop offset="1" stop-color="#c822ff" />
  </linearGradient>
  <path fill="url(#Vst614ajxZ0CY~qsJnNOyf)" d="M33.5,14.5c0,0.818-0.682,1.5-1.5,1.5c-0.818,0-1.5-0.682-1.5-1.5S31.182,13,32,13 C32.852,13,33.5,13.682,33.5,14.5" />
  <linearGradient id="Vst614ajxZ0CY~qsJnNOyg" x1="32" x2="32" y1="1.882" y2="57.173" gradientUnits="userSpaceOnUse" spreadMethod="reflect">
    <stop offset="0" stop-color="#1a6dff" />
    <stop offset="1" stop-color="#c822ff" />
  </linearGradient>
  <path fill="url(#Vst614ajxZ0CY~qsJnNOyg)" d="M33.75 11L32 2 30.25 11z" />
  <linearGradient id="Vst614ajxZ0CY~qsJnNOyh" x1="25.75" x2="25.75" y1="2.179" y2="52.949" gradientUnits="userSpaceOnUse" spreadMethod="reflect">
    <stop offset="0" stop-color="#1a6dff" />
    <stop offset="1" stop-color="#c822ff" />
  </linearGradient>
  <path fill="url(#Vst614ajxZ0CY~qsJnNOyh)" d="M28.5 11L25.09 11 23 3z" />
  <linearGradient id="Vst614ajxZ0CY~qsJnNOyi" x1="38.25" x2="38.25" y1="2.179" y2="52.949" gradientUnits="userSpaceOnUse" spreadMethod="reflect">
    <stop offset="0" stop-color="#1a6dff" />
    <stop offset="1" stop-color="#c822ff" />
  </linearGradient>
  <path fill="url(#Vst614ajxZ0CY~qsJnNOyi)" d="M41 3L38.91 11 35.5 11z" />
</svg>